Coordinates
version=1
nRows=8
nColumns=40
inDegrees=yes

Units are S.I. units (second, meters, Newtons, ...)
Angles are in degrees.

endheader
time	pelvis_tilt	pelvis_list	pelvis_rotation	pelvis_tx	pelvis_ty	pelvis_tz	hip_flexion_r	hip_adduction_r	hip_rotation_r	knee_angle_r	knee_angle_r_beta	ankle_angle_r	subtalar_angle_r	mtp_angle_r	hip_flexion_l	hip_adduction_l	hip_rotation_l	knee_angle_l	knee_angle_l_beta	ankle_angle_l	subtalar_angle_l	mtp_angle_l	lumbar_extension	lumbar_bending	lumbar_rotation	arm_flex_r	arm_add_r	arm_rot_r	elbow_flex_r	pro_sup_r	wrist_flex_r	wrist_dev_r	arm_flex_l	arm_add_l	arm_rot_l	elbow_flex_l	pro_sup_l	wrist_flex_l	wrist_dev_l
     52.76228571	     -6.64708502	     -7.41617339	      4.31437399	      1.07750858	      0.91564820	      0.49623067	     -0.39990600	      7.02928889	    -18.87039421	      6.74665862	      6.74665862	     16.53612219	      9.59525088	     -2.12709018	     35.73491433	     -9.10389616	     -2.36287951	     19.68762747	     19.68762747	      4.24370839	     -7.11158274	     10.27433908	    -10.83239363	      9.20379579	      3.91033393	     56.09606668	    -15.74702138	      9.60084613	    102.71988710	     43.98399618	      0.00000000	      0.00000000	    -20.70411737	     -9.98903221	     11.00738980	     37.78707334	     44.39650848	      0.00000000	      0.00000000
     52.77457143	     -6.68000534	     -7.44132308	      4.23435351	      1.07930694	      0.91419051	      0.49426085	     -0.95119680	      6.93020824	    -18.70630766	      6.89231184	      6.89231184	     17.02566275	      9.55830675	     -2.26183578	     35.39906659	     -8.98525381	     -2.70727087	     19.99754458	     19.99754458	      3.61591971	     -7.25331225	     10.39962958	    -10.35749015	      9.20763102	      3.72895812	     56.38681376	    -15.68460904	      9.55566663	    103.06969472	     43.97742593	      0.00000000	      0.00000000	    -20.87207115	    -10.03090673	     11.08342025	     37.77212877	     44.38718438	      0.00000000	      0.00000000
     52.78685714	     -6.57553449	     -7.25923500	      4.07746676	      1.08121529	      0.91289013	      0.49216909	     -1.20994000	      6.45862787	    -18.16872097	      8.00295758	      8.00295758	     18.11078604	      8.85773194	     -1.36389044	     34.75436217	     -8.60587925	     -2.55425303	     20.17359502	     20.17359502	      1.54129202	     -8.85695841	      6.87297943	    -10.36538845	      8.89029939	      3.80537785	     56.30575265	    -16.01219650	      9.27025940	    107.07630304	     43.93691325	      0.00000000	      0.00000000	    -21.69384817	    -11.07592078	     13.72979498	     40.45814319	     44.16283165	      0.00000000	      0.00000000
     52.79914286	     -6.53370320	     -7.11529177	      3.94213115	      1.08303905	      0.91182329	      0.48988335	     -1.51582065	      6.03775914	    -17.85130742	      8.83246191	      8.83246191	     18.84065804	      8.49932493	     -0.94521644	     34.32600970	     -8.30852802	     -2.43226568	     20.69861734	     20.69861734	      0.33920283	     -9.96916389	      4.90164404	    -10.14713890	      8.68764732	      3.82317431	     56.16675059	    -16.20105649	      8.97332611	    109.06157590	     43.98440680	      0.00000000	      0.00000000	    -21.78005424	    -11.89524032	     16.34430171	     41.44813050	     44.02477423	      0.00000000	      0.00000000
     52.81142857	     -6.51060624	     -6.93726439	      3.85686886	      1.08469115	      0.91100592	      0.48740512	     -1.72227933	      5.54915704	    -17.55943866	      9.76509350	      9.76509350	     19.30625189	      8.03415611	     -1.10793977	     34.11412702	     -7.98988204	     -2.24404123	     21.64463126	     21.64463126	      0.18427666	    -10.73533727	      4.70166317	     -9.93683541	      8.48026433	      3.42248572	     56.14379524	    -16.04636543	      8.95707180	    110.33710771	     43.95876129	      0.00000000	      0.00000000	    -21.80164891	    -11.97780664	     16.53656003	     41.76002800	     44.02667202	      0.00000000	      0.00000000
     52.82371429	     -6.50255241	     -6.67763609	      3.71249143	      1.08629455	      0.91059380	      0.48473447	     -1.80438557	      4.91521766	    -17.17014733	     10.89683398	     10.89683398	     19.71139763	      7.44366461	     -1.11215313	     33.83280038	     -7.55760852	     -1.87521073	     22.49447740	     22.49447740	      0.12538330	    -11.86737616	      4.43930364	     -9.81113334	      8.14644914	      3.49223468	     55.41945286	    -16.59986609	      8.50995175	    112.51855236	     43.93340792	      0.00000000	      0.00000000	    -21.69933707	    -12.40647028	     16.90999300	     42.72818333	     44.03969284	      0.00000000	      0.00000000
     52.83600000	     -6.46378085	     -6.44216651	      3.65308370	      1.08776770	      0.91045860	      0.48182660	     -1.91287687	      4.29316870	    -16.94679919	     12.00980508	     12.00980508	     20.05338611	      7.04145449	     -1.29092754	     33.64981246	     -7.16444214	     -1.59149765	     23.54501914	     23.54501914	      0.45674231	    -12.62403974	      4.24887041	     -9.68390216	      7.93518644	      3.29293148	     54.87271478	    -16.78633264	      8.18763409	    113.93206867	     43.91563890	      0.00000000	      0.00000000	    -21.37542413	    -12.64298583	     17.18700462	     43.17585873	     44.04424641	      0.00000000	      0.00000000
     52.84828571	     -6.41906521	     -6.16915267	      3.56750618	      1.08913838	      0.91077841	      0.47877360	     -1.90630186	      3.56870079	    -16.74139804	     13.32547600	     13.32547600	     20.19337260	      6.65576539	     -1.56244547	     33.37290909	     -6.72089472	     -1.29162388	     24.45009408	     24.45009408	      1.05211382	    -13.37920545	      4.38516223	     -9.61316184	      7.66492809	      3.34403725	     53.83523163	    -17.29598539	      7.59156200	    115.62939310	     43.90054494	      0.00000000	      0.00000000	    -20.87022616	    -12.97032697	     17.48495352	     43.68881986	     44.05674395	      0.00000000	      0.00000000
